# xmcd
#
# Track frame offsets:
# 150
# 11796
# 24828
# 41818
# 57230
# 60436
# 61532
# 69630
# 83948
# 102368
# 113161
# 133534
# 144741
# 158107
# 175732
# 191764
#
# Disc length: 2750 seconds
#
#
# Revision: 0
# Processed by: cddbd v1.5.1PL2 Copyright (c) Steve Scherf et al.
# Submitted via: FreeRIP 2.945 
#
DISCID=d70abc10
DTITLE=Carlinhos fogo puro - Carlinhos fogo puro-É só fogo
DYEAR=1900
DGENRE=Gospel
TTITLE0=O crente  linguarudo
TTITLE1=Satanás já perdeu
TTITLE2=Carruagem de fogo
TTITLE3=Sevocê gosta de orar
TTITLE4=A unção de DEUS chegou
TTITLE5=O fogo lá do céu
TTITLE6=Joga por terra
TTITLE7=É mistério de fogo
TTITLE8=Roda de fogo
TTITLE9=Glória a Jeova
TTITLE10=O homem da galiléia
TTITLE11=12
TTITLE12=13
TTITLE13=14
TTITLE14=15
TTITLE15=16
EXTD=
EXTT0=
EXTT1=
EXTT2=
EXTT3=
EXTT4=
EXTT5=
EXTT6=
EXTT7=
EXTT8=
EXTT9=
EXTT10=
EXTT11=
EXTT12=
EXTT13=
EXTT14=
EXTT15=
PLAYORDER=
